<mxfile host="app.diagrams.net" modified="2023-10-26T18:44:37.928Z" agent="Mozilla/5.0 (Windows NT 10.0; Win64; x64) AppleWebKit/537.36 (KHTML, like Gecko) Chrome/118.0.0.0 Safari/537.36" etag="-NqApAWl-LaSa1DQMIGc" version="22.0.8" type="device" pages="3">
  <diagram id="pER_RbvARtXm4DGpQaqY" name="Page-1">
    <mxGraphModel dx="548" dy="586" grid="1" gridSize="10" guides="1" tooltips="1" connect="1" arrows="1" fold="1" page="1" pageScale="1" pageWidth="850" pageHeight="1100" math="0" shadow="0">
      <root>
        <mxCell id="0" />
        <mxCell id="1" parent="0" />
        <mxCell id="H1XeXzFF4hbJeUV_jIcQ-15" value="" style="edgeStyle=orthogonalEdgeStyle;rounded=0;orthogonalLoop=1;jettySize=auto;html=1;" parent="1" source="H1XeXzFF4hbJeUV_jIcQ-2" target="H1XeXzFF4hbJeUV_jIcQ-5" edge="1">
          <mxGeometry relative="1" as="geometry">
            <Array as="points">
              <mxPoint x="300" y="180" />
              <mxPoint x="300" y="180" />
            </Array>
          </mxGeometry>
        </mxCell>
        <mxCell id="H1XeXzFF4hbJeUV_jIcQ-2" value="Login" style="rounded=1;whiteSpace=wrap;html=1;" parent="1" vertex="1">
          <mxGeometry x="160" y="150" width="120" height="60" as="geometry" />
        </mxCell>
        <mxCell id="H1XeXzFF4hbJeUV_jIcQ-13" style="edgeStyle=orthogonalEdgeStyle;rounded=0;orthogonalLoop=1;jettySize=auto;html=1;exitX=0.498;exitY=1.03;exitDx=0;exitDy=0;exitPerimeter=0;" parent="1" source="H1XeXzFF4hbJeUV_jIcQ-3" target="H1XeXzFF4hbJeUV_jIcQ-2" edge="1">
          <mxGeometry relative="1" as="geometry">
            <Array as="points">
              <mxPoint x="220" y="120" />
              <mxPoint x="220" y="120" />
            </Array>
          </mxGeometry>
        </mxCell>
        <mxCell id="H1XeXzFF4hbJeUV_jIcQ-3" value="" style="strokeWidth=2;html=1;shape=mxgraph.flowchart.start_2;whiteSpace=wrap;" parent="1" vertex="1">
          <mxGeometry x="205" y="80" width="30" height="30" as="geometry" />
        </mxCell>
        <mxCell id="H1XeXzFF4hbJeUV_jIcQ-4" value="" style="ellipse;html=1;shape=endState;fillColor=#000000;strokeColor=#ff0000;" parent="1" vertex="1">
          <mxGeometry x="465" y="390" width="30" height="30" as="geometry" />
        </mxCell>
        <mxCell id="H1XeXzFF4hbJeUV_jIcQ-21" style="edgeStyle=orthogonalEdgeStyle;rounded=0;orthogonalLoop=1;jettySize=auto;html=1;entryX=0;entryY=0.5;entryDx=0;entryDy=0;" parent="1" source="H1XeXzFF4hbJeUV_jIcQ-5" target="H1XeXzFF4hbJeUV_jIcQ-19" edge="1">
          <mxGeometry relative="1" as="geometry" />
        </mxCell>
        <mxCell id="H1XeXzFF4hbJeUV_jIcQ-27" style="edgeStyle=orthogonalEdgeStyle;rounded=0;orthogonalLoop=1;jettySize=auto;html=1;" parent="1" source="H1XeXzFF4hbJeUV_jIcQ-5" edge="1">
          <mxGeometry relative="1" as="geometry">
            <mxPoint x="220" y="210" as="targetPoint" />
            <Array as="points">
              <mxPoint x="360" y="240" />
              <mxPoint x="220" y="240" />
              <mxPoint x="220" y="210" />
            </Array>
          </mxGeometry>
        </mxCell>
        <mxCell id="H1XeXzFF4hbJeUV_jIcQ-5" value="" style="rhombus;whiteSpace=wrap;html=1;" parent="1" vertex="1">
          <mxGeometry x="320" y="140" width="80" height="80" as="geometry" />
        </mxCell>
        <mxCell id="H1XeXzFF4hbJeUV_jIcQ-31" style="edgeStyle=orthogonalEdgeStyle;rounded=0;orthogonalLoop=1;jettySize=auto;html=1;entryX=1;entryY=0.5;entryDx=0;entryDy=0;" parent="1" source="H1XeXzFF4hbJeUV_jIcQ-6" target="H1XeXzFF4hbJeUV_jIcQ-25" edge="1">
          <mxGeometry relative="1" as="geometry">
            <Array as="points">
              <mxPoint x="710" y="310" />
            </Array>
          </mxGeometry>
        </mxCell>
        <mxCell id="H1XeXzFF4hbJeUV_jIcQ-6" value="Change Password" style="rounded=1;whiteSpace=wrap;html=1;" parent="1" vertex="1">
          <mxGeometry x="650" y="150" width="120" height="60" as="geometry" />
        </mxCell>
        <mxCell id="H1XeXzFF4hbJeUV_jIcQ-8" value="Start" style="text;html=1;strokeColor=none;fillColor=none;align=center;verticalAlign=middle;whiteSpace=wrap;rounded=0;" parent="1" vertex="1">
          <mxGeometry x="190" y="50" width="60" height="30" as="geometry" />
        </mxCell>
        <mxCell id="H1XeXzFF4hbJeUV_jIcQ-17" value="[invalid]" style="text;html=1;strokeColor=none;fillColor=none;align=center;verticalAlign=middle;whiteSpace=wrap;rounded=0;" parent="1" vertex="1">
          <mxGeometry x="260" y="220" width="50" height="20" as="geometry" />
        </mxCell>
        <mxCell id="H1XeXzFF4hbJeUV_jIcQ-18" value="[valid]" style="text;html=1;strokeColor=none;fillColor=none;align=center;verticalAlign=middle;whiteSpace=wrap;rounded=0;" parent="1" vertex="1">
          <mxGeometry x="390" y="160" width="50" height="20" as="geometry" />
        </mxCell>
        <mxCell id="H1XeXzFF4hbJeUV_jIcQ-22" style="edgeStyle=orthogonalEdgeStyle;rounded=0;orthogonalLoop=1;jettySize=auto;html=1;entryX=0;entryY=0.5;entryDx=0;entryDy=0;" parent="1" source="H1XeXzFF4hbJeUV_jIcQ-19" target="H1XeXzFF4hbJeUV_jIcQ-6" edge="1">
          <mxGeometry relative="1" as="geometry" />
        </mxCell>
        <mxCell id="H1XeXzFF4hbJeUV_jIcQ-30" style="edgeStyle=orthogonalEdgeStyle;rounded=0;orthogonalLoop=1;jettySize=auto;html=1;entryX=0.5;entryY=0;entryDx=0;entryDy=0;" parent="1" source="H1XeXzFF4hbJeUV_jIcQ-19" target="H1XeXzFF4hbJeUV_jIcQ-25" edge="1">
          <mxGeometry relative="1" as="geometry" />
        </mxCell>
        <mxCell id="H1XeXzFF4hbJeUV_jIcQ-19" value="" style="rhombus;whiteSpace=wrap;html=1;" parent="1" vertex="1">
          <mxGeometry x="440" y="140" width="80" height="80" as="geometry" />
        </mxCell>
        <mxCell id="H1XeXzFF4hbJeUV_jIcQ-23" value="[user login first time]" style="text;html=1;strokeColor=none;fillColor=none;align=center;verticalAlign=middle;whiteSpace=wrap;rounded=0;" parent="1" vertex="1">
          <mxGeometry x="510" y="150" width="140" height="20" as="geometry" />
        </mxCell>
        <mxCell id="H1XeXzFF4hbJeUV_jIcQ-24" value="[else]" style="text;html=1;strokeColor=none;fillColor=none;align=center;verticalAlign=middle;whiteSpace=wrap;rounded=0;" parent="1" vertex="1">
          <mxGeometry x="480" y="230" width="50" height="20" as="geometry" />
        </mxCell>
        <mxCell id="H1XeXzFF4hbJeUV_jIcQ-32" style="edgeStyle=orthogonalEdgeStyle;rounded=0;orthogonalLoop=1;jettySize=auto;html=1;entryX=0.5;entryY=0;entryDx=0;entryDy=0;" parent="1" source="H1XeXzFF4hbJeUV_jIcQ-25" target="H1XeXzFF4hbJeUV_jIcQ-4" edge="1">
          <mxGeometry relative="1" as="geometry" />
        </mxCell>
        <mxCell id="H1XeXzFF4hbJeUV_jIcQ-25" value="&lt;span&gt;Register Device&lt;/span&gt;" style="rounded=1;whiteSpace=wrap;html=1;" parent="1" vertex="1">
          <mxGeometry x="420" y="280" width="120" height="60" as="geometry" />
        </mxCell>
        <mxCell id="H1XeXzFF4hbJeUV_jIcQ-33" value="End" style="text;html=1;strokeColor=none;fillColor=none;align=center;verticalAlign=middle;whiteSpace=wrap;rounded=0;" parent="1" vertex="1">
          <mxGeometry x="450" y="420" width="60" height="30" as="geometry" />
        </mxCell>
        <mxCell id="3Dnj5h6EkWBb9BKkfx1r-1" value="" style="ellipse;html=1;shape=startState;fillColor=#000000;strokeColor=#ff0000;" vertex="1" parent="1">
          <mxGeometry x="390" y="510" width="30" height="30" as="geometry" />
        </mxCell>
        <mxCell id="3Dnj5h6EkWBb9BKkfx1r-2" value="" style="edgeStyle=orthogonalEdgeStyle;html=1;verticalAlign=bottom;endArrow=open;endSize=8;strokeColor=#ff0000;rounded=0;" edge="1" source="3Dnj5h6EkWBb9BKkfx1r-1" parent="1">
          <mxGeometry relative="1" as="geometry">
            <mxPoint x="395" y="870" as="targetPoint" />
          </mxGeometry>
        </mxCell>
      </root>
    </mxGraphModel>
  </diagram>
  <diagram id="bCH2TMnFGRLjOpUk75pw" name="Page-2">
    <mxGraphModel dx="2345" dy="1029" grid="0" gridSize="10" guides="1" tooltips="1" connect="1" arrows="1" fold="1" page="1" pageScale="1" pageWidth="850" pageHeight="1100" math="0" shadow="0">
      <root>
        <mxCell id="0" />
        <mxCell id="1" parent="0" />
        <mxCell id="t0TUT1B6V4bsdQH_PJyF-1" value="" style="ellipse;html=1;shape=startState;fillColor=#000000;strokeColor=#ff0000;" vertex="1" parent="1">
          <mxGeometry x="425" y="100" width="30" height="30" as="geometry" />
        </mxCell>
        <mxCell id="t0TUT1B6V4bsdQH_PJyF-2" value="" style="edgeStyle=orthogonalEdgeStyle;html=1;verticalAlign=bottom;endArrow=open;endSize=8;strokeColor=#ff0000;rounded=0;" edge="1" source="t0TUT1B6V4bsdQH_PJyF-1" parent="1">
          <mxGeometry relative="1" as="geometry">
            <mxPoint x="440" y="160" as="targetPoint" />
          </mxGeometry>
        </mxCell>
        <mxCell id="t0TUT1B6V4bsdQH_PJyF-26" style="edgeStyle=orthogonalEdgeStyle;rounded=0;orthogonalLoop=1;jettySize=auto;html=1;exitX=0.5;exitY=1;exitDx=0;exitDy=0;entryX=0.5;entryY=0;entryDx=0;entryDy=0;" edge="1" parent="1" source="t0TUT1B6V4bsdQH_PJyF-3" target="t0TUT1B6V4bsdQH_PJyF-4">
          <mxGeometry relative="1" as="geometry" />
        </mxCell>
        <mxCell id="t0TUT1B6V4bsdQH_PJyF-3" value="" style="rounded=1;whiteSpace=wrap;html=1;" vertex="1" parent="1">
          <mxGeometry x="380" y="160" width="120" height="60" as="geometry" />
        </mxCell>
        <mxCell id="t0TUT1B6V4bsdQH_PJyF-27" style="edgeStyle=orthogonalEdgeStyle;rounded=0;orthogonalLoop=1;jettySize=auto;html=1;exitX=0.5;exitY=1;exitDx=0;exitDy=0;entryX=0.5;entryY=0;entryDx=0;entryDy=0;" edge="1" parent="1" source="t0TUT1B6V4bsdQH_PJyF-4" target="t0TUT1B6V4bsdQH_PJyF-6">
          <mxGeometry relative="1" as="geometry" />
        </mxCell>
        <mxCell id="t0TUT1B6V4bsdQH_PJyF-4" value="" style="rhombus;whiteSpace=wrap;html=1;" vertex="1" parent="1">
          <mxGeometry x="400" y="240" width="80" height="80" as="geometry" />
        </mxCell>
        <mxCell id="t0TUT1B6V4bsdQH_PJyF-31" style="edgeStyle=orthogonalEdgeStyle;rounded=0;orthogonalLoop=1;jettySize=auto;html=1;entryX=0.5;entryY=0;entryDx=0;entryDy=0;" edge="1" parent="1" source="t0TUT1B6V4bsdQH_PJyF-6" target="t0TUT1B6V4bsdQH_PJyF-8">
          <mxGeometry relative="1" as="geometry">
            <mxPoint x="550" y="390" as="targetPoint" />
          </mxGeometry>
        </mxCell>
        <mxCell id="t0TUT1B6V4bsdQH_PJyF-33" style="edgeStyle=orthogonalEdgeStyle;rounded=0;orthogonalLoop=1;jettySize=auto;html=1;" edge="1" parent="1" source="t0TUT1B6V4bsdQH_PJyF-6" target="t0TUT1B6V4bsdQH_PJyF-7">
          <mxGeometry relative="1" as="geometry">
            <mxPoint x="290" y="390" as="targetPoint" />
            <Array as="points">
              <mxPoint x="320" y="390" />
              <mxPoint x="320" y="391" />
              <mxPoint x="300" y="391" />
            </Array>
          </mxGeometry>
        </mxCell>
        <mxCell id="t0TUT1B6V4bsdQH_PJyF-6" value="" style="rounded=1;whiteSpace=wrap;html=1;" vertex="1" parent="1">
          <mxGeometry x="380" y="360" width="120" height="60" as="geometry" />
        </mxCell>
        <mxCell id="t0TUT1B6V4bsdQH_PJyF-35" style="edgeStyle=orthogonalEdgeStyle;rounded=0;orthogonalLoop=1;jettySize=auto;html=1;entryX=0.5;entryY=0;entryDx=0;entryDy=0;" edge="1" parent="1" source="t0TUT1B6V4bsdQH_PJyF-7" target="t0TUT1B6V4bsdQH_PJyF-9">
          <mxGeometry relative="1" as="geometry" />
        </mxCell>
        <mxCell id="t0TUT1B6V4bsdQH_PJyF-7" value="" style="rounded=1;whiteSpace=wrap;html=1;" vertex="1" parent="1">
          <mxGeometry x="240" y="480" width="120" height="60" as="geometry" />
        </mxCell>
        <mxCell id="t0TUT1B6V4bsdQH_PJyF-36" style="edgeStyle=orthogonalEdgeStyle;rounded=0;orthogonalLoop=1;jettySize=auto;html=1;entryX=0.5;entryY=0;entryDx=0;entryDy=0;" edge="1" parent="1" source="t0TUT1B6V4bsdQH_PJyF-8" target="t0TUT1B6V4bsdQH_PJyF-10">
          <mxGeometry relative="1" as="geometry" />
        </mxCell>
        <mxCell id="t0TUT1B6V4bsdQH_PJyF-8" value="" style="rounded=1;whiteSpace=wrap;html=1;" vertex="1" parent="1">
          <mxGeometry x="520" y="480" width="120" height="60" as="geometry" />
        </mxCell>
        <mxCell id="t0TUT1B6V4bsdQH_PJyF-37" style="edgeStyle=orthogonalEdgeStyle;rounded=0;orthogonalLoop=1;jettySize=auto;html=1;entryX=0.5;entryY=0;entryDx=0;entryDy=0;" edge="1" parent="1" source="t0TUT1B6V4bsdQH_PJyF-9" target="t0TUT1B6V4bsdQH_PJyF-11">
          <mxGeometry relative="1" as="geometry" />
        </mxCell>
        <mxCell id="t0TUT1B6V4bsdQH_PJyF-9" value="" style="rounded=1;whiteSpace=wrap;html=1;" vertex="1" parent="1">
          <mxGeometry x="240" y="580" width="120" height="60" as="geometry" />
        </mxCell>
        <mxCell id="t0TUT1B6V4bsdQH_PJyF-38" style="edgeStyle=orthogonalEdgeStyle;rounded=0;orthogonalLoop=1;jettySize=auto;html=1;" edge="1" parent="1" source="t0TUT1B6V4bsdQH_PJyF-10" target="t0TUT1B6V4bsdQH_PJyF-12">
          <mxGeometry relative="1" as="geometry" />
        </mxCell>
        <mxCell id="t0TUT1B6V4bsdQH_PJyF-10" value="" style="rounded=1;whiteSpace=wrap;html=1;" vertex="1" parent="1">
          <mxGeometry x="520" y="580" width="120" height="60" as="geometry" />
        </mxCell>
        <mxCell id="t0TUT1B6V4bsdQH_PJyF-39" style="edgeStyle=orthogonalEdgeStyle;rounded=0;orthogonalLoop=1;jettySize=auto;html=1;exitX=0.5;exitY=1;exitDx=0;exitDy=0;entryX=0.5;entryY=0;entryDx=0;entryDy=0;" edge="1" parent="1" source="t0TUT1B6V4bsdQH_PJyF-11" target="t0TUT1B6V4bsdQH_PJyF-13">
          <mxGeometry relative="1" as="geometry" />
        </mxCell>
        <mxCell id="t0TUT1B6V4bsdQH_PJyF-11" value="" style="rounded=1;whiteSpace=wrap;html=1;" vertex="1" parent="1">
          <mxGeometry x="240" y="680" width="120" height="60" as="geometry" />
        </mxCell>
        <mxCell id="t0TUT1B6V4bsdQH_PJyF-40" style="edgeStyle=orthogonalEdgeStyle;rounded=0;orthogonalLoop=1;jettySize=auto;html=1;" edge="1" parent="1" source="t0TUT1B6V4bsdQH_PJyF-12" target="t0TUT1B6V4bsdQH_PJyF-14">
          <mxGeometry relative="1" as="geometry" />
        </mxCell>
        <mxCell id="t0TUT1B6V4bsdQH_PJyF-12" value="" style="rounded=1;whiteSpace=wrap;html=1;" vertex="1" parent="1">
          <mxGeometry x="520" y="675" width="120" height="65" as="geometry" />
        </mxCell>
        <mxCell id="t0TUT1B6V4bsdQH_PJyF-42" style="edgeStyle=orthogonalEdgeStyle;rounded=0;orthogonalLoop=1;jettySize=auto;html=1;" edge="1" parent="1" source="t0TUT1B6V4bsdQH_PJyF-13" target="t0TUT1B6V4bsdQH_PJyF-18">
          <mxGeometry relative="1" as="geometry" />
        </mxCell>
        <mxCell id="t0TUT1B6V4bsdQH_PJyF-44" style="edgeStyle=orthogonalEdgeStyle;rounded=0;orthogonalLoop=1;jettySize=auto;html=1;entryX=0;entryY=0.5;entryDx=0;entryDy=0;" edge="1" parent="1" source="t0TUT1B6V4bsdQH_PJyF-13" target="t0TUT1B6V4bsdQH_PJyF-15">
          <mxGeometry relative="1" as="geometry">
            <mxPoint x="300" y="870.0000000000002" as="targetPoint" />
            <Array as="points">
              <mxPoint x="300" y="855" />
              <mxPoint x="301" y="855" />
              <mxPoint x="301" y="915" />
            </Array>
          </mxGeometry>
        </mxCell>
        <mxCell id="t0TUT1B6V4bsdQH_PJyF-13" value="" style="rhombus;whiteSpace=wrap;html=1;" vertex="1" parent="1">
          <mxGeometry x="260" y="760" width="80" height="80" as="geometry" />
        </mxCell>
        <mxCell id="t0TUT1B6V4bsdQH_PJyF-41" style="edgeStyle=orthogonalEdgeStyle;rounded=0;orthogonalLoop=1;jettySize=auto;html=1;entryX=0;entryY=0.5;entryDx=0;entryDy=0;" edge="1" parent="1" source="t0TUT1B6V4bsdQH_PJyF-14" target="t0TUT1B6V4bsdQH_PJyF-17">
          <mxGeometry relative="1" as="geometry" />
        </mxCell>
        <mxCell id="t0TUT1B6V4bsdQH_PJyF-47" style="edgeStyle=orthogonalEdgeStyle;rounded=0;orthogonalLoop=1;jettySize=auto;html=1;entryX=1;entryY=0.5;entryDx=0;entryDy=0;" edge="1" parent="1" source="t0TUT1B6V4bsdQH_PJyF-14" target="t0TUT1B6V4bsdQH_PJyF-15">
          <mxGeometry relative="1" as="geometry">
            <Array as="points">
              <mxPoint x="580" y="910" />
            </Array>
          </mxGeometry>
        </mxCell>
        <mxCell id="t0TUT1B6V4bsdQH_PJyF-14" value="" style="rhombus;whiteSpace=wrap;html=1;" vertex="1" parent="1">
          <mxGeometry x="540" y="760" width="80" height="80" as="geometry" />
        </mxCell>
        <mxCell id="t0TUT1B6V4bsdQH_PJyF-48" style="edgeStyle=orthogonalEdgeStyle;rounded=0;orthogonalLoop=1;jettySize=auto;html=1;entryX=0.5;entryY=0;entryDx=0;entryDy=0;" edge="1" parent="1" source="t0TUT1B6V4bsdQH_PJyF-15" target="t0TUT1B6V4bsdQH_PJyF-16">
          <mxGeometry relative="1" as="geometry" />
        </mxCell>
        <mxCell id="t0TUT1B6V4bsdQH_PJyF-15" value="" style="rounded=1;whiteSpace=wrap;html=1;" vertex="1" parent="1">
          <mxGeometry x="380" y="880" width="120" height="70" as="geometry" />
        </mxCell>
        <mxCell id="t0TUT1B6V4bsdQH_PJyF-49" style="edgeStyle=orthogonalEdgeStyle;rounded=0;orthogonalLoop=1;jettySize=auto;html=1;" edge="1" parent="1" source="t0TUT1B6V4bsdQH_PJyF-16" target="t0TUT1B6V4bsdQH_PJyF-24">
          <mxGeometry relative="1" as="geometry" />
        </mxCell>
        <mxCell id="t0TUT1B6V4bsdQH_PJyF-16" value="" style="rounded=1;whiteSpace=wrap;html=1;" vertex="1" parent="1">
          <mxGeometry x="380" y="990" width="120" height="60" as="geometry" />
        </mxCell>
        <mxCell id="t0TUT1B6V4bsdQH_PJyF-53" style="edgeStyle=orthogonalEdgeStyle;rounded=0;orthogonalLoop=1;jettySize=auto;html=1;entryX=1;entryY=0.5;entryDx=0;entryDy=0;" edge="1" parent="1" source="t0TUT1B6V4bsdQH_PJyF-17" target="t0TUT1B6V4bsdQH_PJyF-8">
          <mxGeometry relative="1" as="geometry">
            <Array as="points">
              <mxPoint x="740" y="510" />
            </Array>
          </mxGeometry>
        </mxCell>
        <mxCell id="t0TUT1B6V4bsdQH_PJyF-17" value="" style="rounded=1;whiteSpace=wrap;html=1;" vertex="1" parent="1">
          <mxGeometry x="680" y="770" width="120" height="60" as="geometry" />
        </mxCell>
        <mxCell id="t0TUT1B6V4bsdQH_PJyF-52" style="edgeStyle=orthogonalEdgeStyle;rounded=0;orthogonalLoop=1;jettySize=auto;html=1;entryX=0;entryY=0.5;entryDx=0;entryDy=0;" edge="1" parent="1" source="t0TUT1B6V4bsdQH_PJyF-18" target="t0TUT1B6V4bsdQH_PJyF-7">
          <mxGeometry relative="1" as="geometry">
            <Array as="points">
              <mxPoint x="140" y="510" />
            </Array>
          </mxGeometry>
        </mxCell>
        <mxCell id="t0TUT1B6V4bsdQH_PJyF-18" value="" style="rounded=1;whiteSpace=wrap;html=1;" vertex="1" parent="1">
          <mxGeometry x="80" y="770" width="120" height="60" as="geometry" />
        </mxCell>
        <mxCell id="t0TUT1B6V4bsdQH_PJyF-24" value="" style="ellipse;html=1;shape=endState;fillColor=#000000;strokeColor=#ff0000;" vertex="1" parent="1">
          <mxGeometry x="425" y="1120" width="30" height="30" as="geometry" />
        </mxCell>
        <mxCell id="t0TUT1B6V4bsdQH_PJyF-54" value="Start" style="text;html=1;strokeColor=none;fillColor=none;align=center;verticalAlign=middle;whiteSpace=wrap;rounded=0;" vertex="1" parent="1">
          <mxGeometry x="360" y="100" width="60" height="30" as="geometry" />
        </mxCell>
        <mxCell id="t0TUT1B6V4bsdQH_PJyF-55" value="Login" style="text;html=1;strokeColor=none;fillColor=none;align=center;verticalAlign=middle;whiteSpace=wrap;rounded=0;" vertex="1" parent="1">
          <mxGeometry x="410" y="175" width="60" height="30" as="geometry" />
        </mxCell>
        <mxCell id="t0TUT1B6V4bsdQH_PJyF-57" style="edgeStyle=orthogonalEdgeStyle;rounded=0;orthogonalLoop=1;jettySize=auto;html=1;entryX=0;entryY=0.5;entryDx=0;entryDy=0;exitX=0;exitY=0.5;exitDx=0;exitDy=0;" edge="1" parent="1" source="t0TUT1B6V4bsdQH_PJyF-4" target="t0TUT1B6V4bsdQH_PJyF-3">
          <mxGeometry relative="1" as="geometry">
            <mxPoint x="370" y="280" as="sourcePoint" />
            <Array as="points">
              <mxPoint x="320" y="280" />
              <mxPoint x="320" y="190" />
            </Array>
          </mxGeometry>
        </mxCell>
        <mxCell id="t0TUT1B6V4bsdQH_PJyF-56" value="Valid?" style="text;html=1;strokeColor=none;fillColor=none;align=center;verticalAlign=middle;whiteSpace=wrap;rounded=0;" vertex="1" parent="1">
          <mxGeometry x="410" y="265" width="60" height="30" as="geometry" />
        </mxCell>
        <mxCell id="t0TUT1B6V4bsdQH_PJyF-58" value="[NO]" style="text;html=1;strokeColor=none;fillColor=none;align=center;verticalAlign=middle;whiteSpace=wrap;rounded=0;" vertex="1" parent="1">
          <mxGeometry x="310" y="230" width="60" height="30" as="geometry" />
        </mxCell>
        <mxCell id="t0TUT1B6V4bsdQH_PJyF-59" value="[YES]" style="text;html=1;strokeColor=none;fillColor=none;align=center;verticalAlign=middle;whiteSpace=wrap;rounded=0;" vertex="1" parent="1">
          <mxGeometry x="430" y="320" width="60" height="30" as="geometry" />
        </mxCell>
        <mxCell id="t0TUT1B6V4bsdQH_PJyF-60" value="Manage User" style="text;html=1;strokeColor=none;fillColor=none;align=center;verticalAlign=middle;whiteSpace=wrap;rounded=0;" vertex="1" parent="1">
          <mxGeometry x="395" y="375" width="90" height="30" as="geometry" />
        </mxCell>
        <mxCell id="t0TUT1B6V4bsdQH_PJyF-61" value="Add a user" style="text;html=1;strokeColor=none;fillColor=none;align=center;verticalAlign=middle;whiteSpace=wrap;rounded=0;" vertex="1" parent="1">
          <mxGeometry x="260" y="495" width="70" height="30" as="geometry" />
        </mxCell>
        <mxCell id="t0TUT1B6V4bsdQH_PJyF-62" value="Add many users by excel" style="text;html=1;strokeColor=none;fillColor=none;align=center;verticalAlign=middle;whiteSpace=wrap;rounded=0;" vertex="1" parent="1">
          <mxGeometry x="540" y="495" width="80" height="30" as="geometry" />
        </mxCell>
        <mxCell id="t0TUT1B6V4bsdQH_PJyF-63" value="Fill information" style="text;html=1;strokeColor=none;fillColor=none;align=center;verticalAlign=middle;whiteSpace=wrap;rounded=0;" vertex="1" parent="1">
          <mxGeometry x="255" y="595" width="90" height="30" as="geometry" />
        </mxCell>
        <mxCell id="t0TUT1B6V4bsdQH_PJyF-64" value="Submit file excel" style="text;html=1;strokeColor=none;fillColor=none;align=center;verticalAlign=middle;whiteSpace=wrap;rounded=0;" vertex="1" parent="1">
          <mxGeometry x="530" y="595" width="100" height="30" as="geometry" />
        </mxCell>
        <mxCell id="t0TUT1B6V4bsdQH_PJyF-65" value="Submit" style="text;html=1;strokeColor=none;fillColor=none;align=center;verticalAlign=middle;whiteSpace=wrap;rounded=0;" vertex="1" parent="1">
          <mxGeometry x="270" y="692.5" width="60" height="30" as="geometry" />
        </mxCell>
        <mxCell id="t0TUT1B6V4bsdQH_PJyF-66" value="Import" style="text;html=1;strokeColor=none;fillColor=none;align=center;verticalAlign=middle;whiteSpace=wrap;rounded=0;" vertex="1" parent="1">
          <mxGeometry x="550" y="692.5" width="60" height="30" as="geometry" />
        </mxCell>
        <mxCell id="t0TUT1B6V4bsdQH_PJyF-67" value="Valid?" style="text;html=1;strokeColor=none;fillColor=none;align=center;verticalAlign=middle;whiteSpace=wrap;rounded=0;" vertex="1" parent="1">
          <mxGeometry x="270" y="785" width="60" height="30" as="geometry" />
        </mxCell>
        <mxCell id="t0TUT1B6V4bsdQH_PJyF-68" value="Valid?" style="text;html=1;strokeColor=none;fillColor=none;align=center;verticalAlign=middle;whiteSpace=wrap;rounded=0;" vertex="1" parent="1">
          <mxGeometry x="550" y="785" width="60" height="30" as="geometry" />
        </mxCell>
        <mxCell id="t0TUT1B6V4bsdQH_PJyF-69" value="Alert error message" style="text;html=1;strokeColor=none;fillColor=none;align=center;verticalAlign=middle;whiteSpace=wrap;rounded=0;" vertex="1" parent="1">
          <mxGeometry x="85" y="785" width="110" height="30" as="geometry" />
        </mxCell>
        <mxCell id="t0TUT1B6V4bsdQH_PJyF-70" value="Alert error message" style="text;html=1;strokeColor=none;fillColor=none;align=center;verticalAlign=middle;whiteSpace=wrap;rounded=0;" vertex="1" parent="1">
          <mxGeometry x="685" y="785" width="110" height="30" as="geometry" />
        </mxCell>
        <mxCell id="t0TUT1B6V4bsdQH_PJyF-71" value="Database" style="text;html=1;strokeColor=none;fillColor=none;align=center;verticalAlign=middle;whiteSpace=wrap;rounded=0;" vertex="1" parent="1">
          <mxGeometry x="410" y="900" width="60" height="30" as="geometry" />
        </mxCell>
        <mxCell id="t0TUT1B6V4bsdQH_PJyF-72" value="Alert success message" style="text;html=1;strokeColor=none;fillColor=none;align=center;verticalAlign=middle;whiteSpace=wrap;rounded=0;" vertex="1" parent="1">
          <mxGeometry x="380" y="1005" width="120" height="30" as="geometry" />
        </mxCell>
        <mxCell id="t0TUT1B6V4bsdQH_PJyF-73" value="End" style="text;html=1;strokeColor=none;fillColor=none;align=center;verticalAlign=middle;whiteSpace=wrap;rounded=0;" vertex="1" parent="1">
          <mxGeometry x="350" y="1120" width="60" height="30" as="geometry" />
        </mxCell>
        <mxCell id="t0TUT1B6V4bsdQH_PJyF-74" value="[NO]" style="text;html=1;strokeColor=none;fillColor=none;align=center;verticalAlign=middle;whiteSpace=wrap;rounded=0;" vertex="1" parent="1">
          <mxGeometry x="210" y="810" width="60" height="30" as="geometry" />
        </mxCell>
        <mxCell id="t0TUT1B6V4bsdQH_PJyF-75" value="[YES]" style="text;html=1;strokeColor=none;fillColor=none;align=center;verticalAlign=middle;whiteSpace=wrap;rounded=0;" vertex="1" parent="1">
          <mxGeometry x="300" y="850" width="60" height="30" as="geometry" />
        </mxCell>
        <mxCell id="t0TUT1B6V4bsdQH_PJyF-76" value="[NO]" style="text;html=1;strokeColor=none;fillColor=none;align=center;verticalAlign=middle;whiteSpace=wrap;rounded=0;" vertex="1" parent="1">
          <mxGeometry x="620" y="810" width="60" height="30" as="geometry" />
        </mxCell>
        <mxCell id="t0TUT1B6V4bsdQH_PJyF-77" value="[YES]" style="text;html=1;strokeColor=none;fillColor=none;align=center;verticalAlign=middle;whiteSpace=wrap;rounded=0;" vertex="1" parent="1">
          <mxGeometry x="520" y="850" width="60" height="30" as="geometry" />
        </mxCell>
      </root>
    </mxGraphModel>
  </diagram>
  <diagram id="NvnxLu0AhcTPuo8-BI5b" name="Page-3">
    <mxGraphModel dx="2580" dy="1132" grid="0" gridSize="10" guides="1" tooltips="1" connect="1" arrows="1" fold="1" page="1" pageScale="1" pageWidth="850" pageHeight="1100" math="0" shadow="0">
      <root>
        <mxCell id="0" />
        <mxCell id="1" parent="0" />
        <mxCell id="DcuXK3b5VV86mCXhGM9o-25" style="edgeStyle=orthogonalEdgeStyle;rounded=0;orthogonalLoop=1;jettySize=auto;html=1;entryX=0;entryY=0.5;entryDx=0;entryDy=0;" edge="1" parent="1" source="DcuXK3b5VV86mCXhGM9o-1" target="DcuXK3b5VV86mCXhGM9o-3">
          <mxGeometry relative="1" as="geometry" />
        </mxCell>
        <mxCell id="DcuXK3b5VV86mCXhGM9o-1" value="" style="ellipse;html=1;shape=startState;fillColor=#000000;strokeColor=#ff0000;" vertex="1" parent="1">
          <mxGeometry x="150" y="70" width="30" height="30" as="geometry" />
        </mxCell>
        <mxCell id="DcuXK3b5VV86mCXhGM9o-28" style="edgeStyle=orthogonalEdgeStyle;rounded=0;orthogonalLoop=1;jettySize=auto;html=1;entryX=0;entryY=0.5;entryDx=0;entryDy=0;" edge="1" parent="1" source="DcuXK3b5VV86mCXhGM9o-3" target="DcuXK3b5VV86mCXhGM9o-4">
          <mxGeometry relative="1" as="geometry" />
        </mxCell>
        <mxCell id="DcuXK3b5VV86mCXhGM9o-3" value="" style="rounded=1;whiteSpace=wrap;html=1;" vertex="1" parent="1">
          <mxGeometry x="240" y="55" width="120" height="60" as="geometry" />
        </mxCell>
        <mxCell id="DcuXK3b5VV86mCXhGM9o-33" style="edgeStyle=orthogonalEdgeStyle;rounded=0;orthogonalLoop=1;jettySize=auto;html=1;entryX=0.5;entryY=0;entryDx=0;entryDy=0;" edge="1" parent="1" source="DcuXK3b5VV86mCXhGM9o-4" target="DcuXK3b5VV86mCXhGM9o-5">
          <mxGeometry relative="1" as="geometry" />
        </mxCell>
        <mxCell id="DcuXK3b5VV86mCXhGM9o-4" value="" style="rounded=1;whiteSpace=wrap;html=1;" vertex="1" parent="1">
          <mxGeometry x="420" y="55" width="120" height="60" as="geometry" />
        </mxCell>
        <mxCell id="DcuXK3b5VV86mCXhGM9o-34" style="edgeStyle=orthogonalEdgeStyle;rounded=0;orthogonalLoop=1;jettySize=auto;html=1;entryX=0.5;entryY=0;entryDx=0;entryDy=0;" edge="1" parent="1" source="DcuXK3b5VV86mCXhGM9o-5" target="DcuXK3b5VV86mCXhGM9o-6">
          <mxGeometry relative="1" as="geometry">
            <Array as="points">
              <mxPoint x="380" y="190" />
            </Array>
          </mxGeometry>
        </mxCell>
        <mxCell id="DcuXK3b5VV86mCXhGM9o-59" style="edgeStyle=orthogonalEdgeStyle;rounded=0;orthogonalLoop=1;jettySize=auto;html=1;entryX=0;entryY=0.5;entryDx=0;entryDy=0;" edge="1" parent="1" source="DcuXK3b5VV86mCXhGM9o-5" target="DcuXK3b5VV86mCXhGM9o-20">
          <mxGeometry relative="1" as="geometry" />
        </mxCell>
        <mxCell id="DcuXK3b5VV86mCXhGM9o-5" value="" style="rhombus;whiteSpace=wrap;html=1;" vertex="1" parent="1">
          <mxGeometry x="440" y="150" width="80" height="80" as="geometry" />
        </mxCell>
        <mxCell id="DcuXK3b5VV86mCXhGM9o-36" style="edgeStyle=orthogonalEdgeStyle;rounded=0;orthogonalLoop=1;jettySize=auto;html=1;" edge="1" parent="1" source="DcuXK3b5VV86mCXhGM9o-6" target="DcuXK3b5VV86mCXhGM9o-7">
          <mxGeometry relative="1" as="geometry" />
        </mxCell>
        <mxCell id="DcuXK3b5VV86mCXhGM9o-6" value="" style="rounded=1;whiteSpace=wrap;html=1;" vertex="1" parent="1">
          <mxGeometry x="320" y="240" width="120" height="60" as="geometry" />
        </mxCell>
        <mxCell id="DcuXK3b5VV86mCXhGM9o-37" style="edgeStyle=orthogonalEdgeStyle;rounded=0;orthogonalLoop=1;jettySize=auto;html=1;entryX=0.5;entryY=0;entryDx=0;entryDy=0;" edge="1" parent="1" source="DcuXK3b5VV86mCXhGM9o-7" target="DcuXK3b5VV86mCXhGM9o-9">
          <mxGeometry relative="1" as="geometry" />
        </mxCell>
        <mxCell id="DcuXK3b5VV86mCXhGM9o-39" style="edgeStyle=orthogonalEdgeStyle;rounded=0;orthogonalLoop=1;jettySize=auto;html=1;entryX=0.5;entryY=0;entryDx=0;entryDy=0;" edge="1" parent="1" source="DcuXK3b5VV86mCXhGM9o-7" target="DcuXK3b5VV86mCXhGM9o-11">
          <mxGeometry relative="1" as="geometry" />
        </mxCell>
        <mxCell id="DcuXK3b5VV86mCXhGM9o-7" value="" style="rhombus;whiteSpace=wrap;html=1;" vertex="1" parent="1">
          <mxGeometry x="340" y="330" width="80" height="80" as="geometry" />
        </mxCell>
        <mxCell id="DcuXK3b5VV86mCXhGM9o-43" style="edgeStyle=orthogonalEdgeStyle;rounded=0;orthogonalLoop=1;jettySize=auto;html=1;entryX=0.5;entryY=0;entryDx=0;entryDy=0;" edge="1" parent="1" source="DcuXK3b5VV86mCXhGM9o-8" target="DcuXK3b5VV86mCXhGM9o-14">
          <mxGeometry relative="1" as="geometry" />
        </mxCell>
        <mxCell id="DcuXK3b5VV86mCXhGM9o-8" value="" style="rounded=1;whiteSpace=wrap;html=1;" vertex="1" parent="1">
          <mxGeometry x="240" y="430" width="120" height="60" as="geometry" />
        </mxCell>
        <mxCell id="DcuXK3b5VV86mCXhGM9o-42" style="edgeStyle=orthogonalEdgeStyle;rounded=0;orthogonalLoop=1;jettySize=auto;html=1;entryX=0.5;entryY=0;entryDx=0;entryDy=0;" edge="1" parent="1" source="DcuXK3b5VV86mCXhGM9o-9" target="DcuXK3b5VV86mCXhGM9o-13">
          <mxGeometry relative="1" as="geometry" />
        </mxCell>
        <mxCell id="DcuXK3b5VV86mCXhGM9o-9" value="" style="rounded=1;whiteSpace=wrap;html=1;" vertex="1" parent="1">
          <mxGeometry x="80" y="430" width="120" height="60" as="geometry" />
        </mxCell>
        <mxCell id="DcuXK3b5VV86mCXhGM9o-44" style="edgeStyle=orthogonalEdgeStyle;rounded=0;orthogonalLoop=1;jettySize=auto;html=1;" edge="1" parent="1" source="DcuXK3b5VV86mCXhGM9o-10" target="DcuXK3b5VV86mCXhGM9o-15">
          <mxGeometry relative="1" as="geometry" />
        </mxCell>
        <mxCell id="DcuXK3b5VV86mCXhGM9o-10" value="" style="rounded=1;whiteSpace=wrap;html=1;" vertex="1" parent="1">
          <mxGeometry x="400" y="430" width="120" height="60" as="geometry" />
        </mxCell>
        <mxCell id="DcuXK3b5VV86mCXhGM9o-46" style="edgeStyle=orthogonalEdgeStyle;rounded=0;orthogonalLoop=1;jettySize=auto;html=1;entryX=0.5;entryY=0;entryDx=0;entryDy=0;" edge="1" parent="1" source="DcuXK3b5VV86mCXhGM9o-11" target="DcuXK3b5VV86mCXhGM9o-56">
          <mxGeometry relative="1" as="geometry">
            <mxPoint x="620" y="560" as="targetPoint" />
          </mxGeometry>
        </mxCell>
        <mxCell id="DcuXK3b5VV86mCXhGM9o-11" value="" style="rounded=1;whiteSpace=wrap;html=1;" vertex="1" parent="1">
          <mxGeometry x="560" y="430" width="120" height="60" as="geometry" />
        </mxCell>
        <mxCell id="DcuXK3b5VV86mCXhGM9o-35" style="edgeStyle=orthogonalEdgeStyle;rounded=0;orthogonalLoop=1;jettySize=auto;html=1;entryX=0;entryY=0.5;entryDx=0;entryDy=0;" edge="1" parent="1" source="DcuXK3b5VV86mCXhGM9o-12" target="DcuXK3b5VV86mCXhGM9o-6">
          <mxGeometry relative="1" as="geometry" />
        </mxCell>
        <mxCell id="DcuXK3b5VV86mCXhGM9o-12" value="" style="rounded=1;whiteSpace=wrap;html=1;" vertex="1" parent="1">
          <mxGeometry x="40" y="240" width="120" height="60" as="geometry" />
        </mxCell>
        <mxCell id="DcuXK3b5VV86mCXhGM9o-50" style="edgeStyle=orthogonalEdgeStyle;rounded=0;orthogonalLoop=1;jettySize=auto;html=1;entryX=0;entryY=0.5;entryDx=0;entryDy=0;" edge="1" parent="1" source="DcuXK3b5VV86mCXhGM9o-13" target="DcuXK3b5VV86mCXhGM9o-12">
          <mxGeometry relative="1" as="geometry">
            <Array as="points">
              <mxPoint x="20" y="570" />
              <mxPoint x="20" y="270" />
            </Array>
          </mxGeometry>
        </mxCell>
        <mxCell id="DcuXK3b5VV86mCXhGM9o-13" value="" style="rhombus;whiteSpace=wrap;html=1;" vertex="1" parent="1">
          <mxGeometry x="100" y="530" width="80" height="80" as="geometry" />
        </mxCell>
        <mxCell id="DcuXK3b5VV86mCXhGM9o-47" style="edgeStyle=orthogonalEdgeStyle;rounded=0;orthogonalLoop=1;jettySize=auto;html=1;entryX=0.5;entryY=0;entryDx=0;entryDy=0;" edge="1" parent="1" source="DcuXK3b5VV86mCXhGM9o-14" target="DcuXK3b5VV86mCXhGM9o-16">
          <mxGeometry relative="1" as="geometry" />
        </mxCell>
        <mxCell id="DcuXK3b5VV86mCXhGM9o-78" style="edgeStyle=orthogonalEdgeStyle;rounded=0;orthogonalLoop=1;jettySize=auto;html=1;entryX=0;entryY=0.5;entryDx=0;entryDy=0;" edge="1" parent="1" source="DcuXK3b5VV86mCXhGM9o-14" target="DcuXK3b5VV86mCXhGM9o-8">
          <mxGeometry relative="1" as="geometry">
            <Array as="points">
              <mxPoint x="220" y="570" />
              <mxPoint x="220" y="460" />
            </Array>
          </mxGeometry>
        </mxCell>
        <mxCell id="DcuXK3b5VV86mCXhGM9o-14" value="" style="rhombus;whiteSpace=wrap;html=1;" vertex="1" parent="1">
          <mxGeometry x="260" y="530" width="80" height="80" as="geometry" />
        </mxCell>
        <mxCell id="DcuXK3b5VV86mCXhGM9o-15" value="" style="rhombus;whiteSpace=wrap;html=1;" vertex="1" parent="1">
          <mxGeometry x="420" y="530" width="80" height="80" as="geometry" />
        </mxCell>
        <mxCell id="DcuXK3b5VV86mCXhGM9o-48" style="edgeStyle=orthogonalEdgeStyle;rounded=0;orthogonalLoop=1;jettySize=auto;html=1;entryX=0.5;entryY=1;entryDx=0;entryDy=0;" edge="1" parent="1" source="DcuXK3b5VV86mCXhGM9o-16" target="DcuXK3b5VV86mCXhGM9o-15">
          <mxGeometry relative="1" as="geometry" />
        </mxCell>
        <mxCell id="DcuXK3b5VV86mCXhGM9o-49" style="edgeStyle=orthogonalEdgeStyle;rounded=0;orthogonalLoop=1;jettySize=auto;html=1;entryX=0.5;entryY=1;entryDx=0;entryDy=0;" edge="1" parent="1" source="DcuXK3b5VV86mCXhGM9o-16" target="DcuXK3b5VV86mCXhGM9o-13">
          <mxGeometry relative="1" as="geometry" />
        </mxCell>
        <mxCell id="DcuXK3b5VV86mCXhGM9o-16" value="" style="rhombus;whiteSpace=wrap;html=1;" vertex="1" parent="1">
          <mxGeometry x="260" y="660" width="80" height="80" as="geometry" />
        </mxCell>
        <mxCell id="DcuXK3b5VV86mCXhGM9o-52" style="edgeStyle=orthogonalEdgeStyle;rounded=0;orthogonalLoop=1;jettySize=auto;html=1;entryX=0;entryY=0.5;entryDx=0;entryDy=0;" edge="1" parent="1" source="DcuXK3b5VV86mCXhGM9o-17" target="DcuXK3b5VV86mCXhGM9o-18">
          <mxGeometry relative="1" as="geometry" />
        </mxCell>
        <mxCell id="DcuXK3b5VV86mCXhGM9o-17" value="" style="shape=cylinder3;whiteSpace=wrap;html=1;boundedLbl=1;backgroundOutline=1;size=15;" vertex="1" parent="1">
          <mxGeometry x="270" y="780" width="60" height="80" as="geometry" />
        </mxCell>
        <mxCell id="DcuXK3b5VV86mCXhGM9o-58" style="edgeStyle=orthogonalEdgeStyle;rounded=0;orthogonalLoop=1;jettySize=auto;html=1;entryX=0;entryY=0.5;entryDx=0;entryDy=0;" edge="1" parent="1" source="DcuXK3b5VV86mCXhGM9o-18" target="DcuXK3b5VV86mCXhGM9o-19">
          <mxGeometry relative="1" as="geometry" />
        </mxCell>
        <mxCell id="DcuXK3b5VV86mCXhGM9o-18" value="" style="rounded=1;whiteSpace=wrap;html=1;" vertex="1" parent="1">
          <mxGeometry x="400" y="790" width="120" height="60" as="geometry" />
        </mxCell>
        <mxCell id="DcuXK3b5VV86mCXhGM9o-19" value="" style="ellipse;html=1;shape=endState;fillColor=#000000;strokeColor=#ff0000;" vertex="1" parent="1">
          <mxGeometry x="600" y="795" width="40" height="50" as="geometry" />
        </mxCell>
        <mxCell id="DcuXK3b5VV86mCXhGM9o-60" style="edgeStyle=orthogonalEdgeStyle;rounded=0;orthogonalLoop=1;jettySize=auto;html=1;entryX=0.5;entryY=0;entryDx=0;entryDy=0;" edge="1" parent="1" source="DcuXK3b5VV86mCXhGM9o-20" target="DcuXK3b5VV86mCXhGM9o-21">
          <mxGeometry relative="1" as="geometry" />
        </mxCell>
        <mxCell id="DcuXK3b5VV86mCXhGM9o-20" value="" style="rounded=1;whiteSpace=wrap;html=1;" vertex="1" parent="1">
          <mxGeometry x="690" y="160" width="120" height="60" as="geometry" />
        </mxCell>
        <mxCell id="DcuXK3b5VV86mCXhGM9o-61" style="edgeStyle=orthogonalEdgeStyle;rounded=0;orthogonalLoop=1;jettySize=auto;html=1;" edge="1" parent="1" source="DcuXK3b5VV86mCXhGM9o-21" target="DcuXK3b5VV86mCXhGM9o-22">
          <mxGeometry relative="1" as="geometry" />
        </mxCell>
        <mxCell id="DcuXK3b5VV86mCXhGM9o-63" style="edgeStyle=orthogonalEdgeStyle;rounded=0;orthogonalLoop=1;jettySize=auto;html=1;" edge="1" parent="1" source="DcuXK3b5VV86mCXhGM9o-21" target="DcuXK3b5VV86mCXhGM9o-23">
          <mxGeometry relative="1" as="geometry" />
        </mxCell>
        <mxCell id="DcuXK3b5VV86mCXhGM9o-21" value="" style="rhombus;whiteSpace=wrap;html=1;" vertex="1" parent="1">
          <mxGeometry x="710" y="250" width="80" height="80" as="geometry" />
        </mxCell>
        <mxCell id="DcuXK3b5VV86mCXhGM9o-22" value="" style="rounded=1;whiteSpace=wrap;html=1;" vertex="1" parent="1">
          <mxGeometry x="560" y="260" width="120" height="60" as="geometry" />
        </mxCell>
        <mxCell id="DcuXK3b5VV86mCXhGM9o-23" value="" style="rounded=1;whiteSpace=wrap;html=1;" vertex="1" parent="1">
          <mxGeometry x="690" y="350" width="120" height="60" as="geometry" />
        </mxCell>
        <mxCell id="DcuXK3b5VV86mCXhGM9o-70" style="edgeStyle=orthogonalEdgeStyle;rounded=0;orthogonalLoop=1;jettySize=auto;html=1;entryX=1;entryY=0.5;entryDx=0;entryDy=0;" edge="1" parent="1" source="DcuXK3b5VV86mCXhGM9o-24" target="DcuXK3b5VV86mCXhGM9o-19">
          <mxGeometry relative="1" as="geometry" />
        </mxCell>
        <mxCell id="DcuXK3b5VV86mCXhGM9o-24" value="" style="rounded=1;whiteSpace=wrap;html=1;" vertex="1" parent="1">
          <mxGeometry x="700" y="790" width="120" height="60" as="geometry" />
        </mxCell>
        <mxCell id="DcuXK3b5VV86mCXhGM9o-26" value="Start" style="text;html=1;strokeColor=none;fillColor=none;align=center;verticalAlign=middle;whiteSpace=wrap;rounded=0;" vertex="1" parent="1">
          <mxGeometry x="90" y="70" width="60" height="30" as="geometry" />
        </mxCell>
        <mxCell id="DcuXK3b5VV86mCXhGM9o-27" value="Login" style="text;html=1;strokeColor=none;fillColor=none;align=center;verticalAlign=middle;whiteSpace=wrap;rounded=0;" vertex="1" parent="1">
          <mxGeometry x="270" y="70" width="60" height="30" as="geometry" />
        </mxCell>
        <mxCell id="DcuXK3b5VV86mCXhGM9o-29" value="Dashboard" style="text;html=1;strokeColor=none;fillColor=none;align=center;verticalAlign=middle;whiteSpace=wrap;rounded=0;" vertex="1" parent="1">
          <mxGeometry x="450" y="70" width="60" height="30" as="geometry" />
        </mxCell>
        <mxCell id="DcuXK3b5VV86mCXhGM9o-40" style="edgeStyle=orthogonalEdgeStyle;rounded=0;orthogonalLoop=1;jettySize=auto;html=1;entryX=0.47;entryY=-0.031;entryDx=0;entryDy=0;entryPerimeter=0;" edge="1" parent="1" source="DcuXK3b5VV86mCXhGM9o-7" target="DcuXK3b5VV86mCXhGM9o-8">
          <mxGeometry relative="1" as="geometry">
            <Array as="points">
              <mxPoint x="380" y="420" />
              <mxPoint x="296" y="420" />
            </Array>
          </mxGeometry>
        </mxCell>
        <mxCell id="DcuXK3b5VV86mCXhGM9o-41" style="edgeStyle=orthogonalEdgeStyle;rounded=0;orthogonalLoop=1;jettySize=auto;html=1;entryX=0.591;entryY=0;entryDx=0;entryDy=0;entryPerimeter=0;" edge="1" parent="1" source="DcuXK3b5VV86mCXhGM9o-7" target="DcuXK3b5VV86mCXhGM9o-10">
          <mxGeometry relative="1" as="geometry">
            <Array as="points">
              <mxPoint x="380" y="420" />
              <mxPoint x="471" y="420" />
            </Array>
          </mxGeometry>
        </mxCell>
        <mxCell id="DcuXK3b5VV86mCXhGM9o-51" style="edgeStyle=orthogonalEdgeStyle;rounded=0;orthogonalLoop=1;jettySize=auto;html=1;entryX=0.5;entryY=0;entryDx=0;entryDy=0;entryPerimeter=0;" edge="1" parent="1" source="DcuXK3b5VV86mCXhGM9o-16" target="DcuXK3b5VV86mCXhGM9o-17">
          <mxGeometry relative="1" as="geometry" />
        </mxCell>
        <mxCell id="DcuXK3b5VV86mCXhGM9o-57" style="edgeStyle=orthogonalEdgeStyle;rounded=0;orthogonalLoop=1;jettySize=auto;html=1;entryX=0.5;entryY=0;entryDx=0;entryDy=0;" edge="1" parent="1" source="DcuXK3b5VV86mCXhGM9o-56" target="DcuXK3b5VV86mCXhGM9o-19">
          <mxGeometry relative="1" as="geometry" />
        </mxCell>
        <mxCell id="DcuXK3b5VV86mCXhGM9o-56" value="" style="rounded=1;whiteSpace=wrap;html=1;" vertex="1" parent="1">
          <mxGeometry x="560" y="590" width="120" height="60" as="geometry" />
        </mxCell>
        <mxCell id="DcuXK3b5VV86mCXhGM9o-67" style="edgeStyle=orthogonalEdgeStyle;rounded=0;orthogonalLoop=1;jettySize=auto;html=1;entryX=0.408;entryY=0.046;entryDx=0;entryDy=0;entryPerimeter=0;" edge="1" parent="1" source="DcuXK3b5VV86mCXhGM9o-23" target="DcuXK3b5VV86mCXhGM9o-24">
          <mxGeometry relative="1" as="geometry" />
        </mxCell>
        <mxCell id="DcuXK3b5VV86mCXhGM9o-71" value="End" style="text;html=1;strokeColor=none;fillColor=none;align=center;verticalAlign=middle;whiteSpace=wrap;rounded=0;" vertex="1" parent="1">
          <mxGeometry x="580" y="860" width="60" height="30" as="geometry" />
        </mxCell>
        <mxCell id="DcuXK3b5VV86mCXhGM9o-72" value="Crud User" style="text;html=1;strokeColor=none;fillColor=none;align=center;verticalAlign=middle;whiteSpace=wrap;rounded=0;" vertex="1" parent="1">
          <mxGeometry x="350" y="255" width="60" height="30" as="geometry" />
        </mxCell>
        <mxCell id="DcuXK3b5VV86mCXhGM9o-73" value="Alert error message" style="text;html=1;strokeColor=none;fillColor=none;align=center;verticalAlign=middle;whiteSpace=wrap;rounded=0;" vertex="1" parent="1">
          <mxGeometry x="45" y="255" width="110" height="30" as="geometry" />
        </mxCell>
        <mxCell id="DcuXK3b5VV86mCXhGM9o-74" value="[duplicate user]" style="text;html=1;strokeColor=none;fillColor=none;align=center;verticalAlign=middle;whiteSpace=wrap;rounded=0;" vertex="1" parent="1">
          <mxGeometry x="20" y="370" width="90" height="30" as="geometry" />
        </mxCell>
        <mxCell id="DcuXK3b5VV86mCXhGM9o-75" value="Import file excel" style="text;html=1;strokeColor=none;fillColor=none;align=center;verticalAlign=middle;whiteSpace=wrap;rounded=0;" vertex="1" parent="1">
          <mxGeometry x="90" y="445" width="90" height="30" as="geometry" />
        </mxCell>
        <mxCell id="DcuXK3b5VV86mCXhGM9o-76" value="[valid]" style="text;html=1;strokeColor=none;fillColor=none;align=center;verticalAlign=middle;whiteSpace=wrap;rounded=0;" vertex="1" parent="1">
          <mxGeometry x="140" y="600" width="60" height="30" as="geometry" />
        </mxCell>
        <mxCell id="DcuXK3b5VV86mCXhGM9o-77" value="[valid]" style="text;html=1;strokeColor=none;fillColor=none;align=center;verticalAlign=middle;whiteSpace=wrap;rounded=0;" vertex="1" parent="1">
          <mxGeometry x="300" y="600" width="60" height="30" as="geometry" />
        </mxCell>
        <mxCell id="DcuXK3b5VV86mCXhGM9o-79" value="[else]" style="text;html=1;strokeColor=none;fillColor=none;align=center;verticalAlign=middle;whiteSpace=wrap;rounded=0;" vertex="1" parent="1">
          <mxGeometry x="210" y="510" width="60" height="30" as="geometry" />
        </mxCell>
        <mxCell id="DcuXK3b5VV86mCXhGM9o-80" value="DB" style="text;html=1;strokeColor=none;fillColor=none;align=center;verticalAlign=middle;whiteSpace=wrap;rounded=0;" vertex="1" parent="1">
          <mxGeometry x="270" y="815" width="60" height="30" as="geometry" />
        </mxCell>
        <mxCell id="DcuXK3b5VV86mCXhGM9o-81" value="Alert successfully" style="text;html=1;strokeColor=none;fillColor=none;align=center;verticalAlign=middle;whiteSpace=wrap;rounded=0;" vertex="1" parent="1">
          <mxGeometry x="410" y="805" width="100" height="30" as="geometry" />
        </mxCell>
        <mxCell id="DcuXK3b5VV86mCXhGM9o-82" value="[valid]" style="text;html=1;strokeColor=none;fillColor=none;align=center;verticalAlign=middle;whiteSpace=wrap;rounded=0;" vertex="1" parent="1">
          <mxGeometry x="470" y="600" width="60" height="30" as="geometry" />
        </mxCell>
        <mxCell id="DcuXK3b5VV86mCXhGM9o-83" value="Add a user" style="text;html=1;strokeColor=none;fillColor=none;align=center;verticalAlign=middle;whiteSpace=wrap;rounded=0;" vertex="1" parent="1">
          <mxGeometry x="260" y="445" width="80" height="30" as="geometry" />
        </mxCell>
        <mxCell id="DcuXK3b5VV86mCXhGM9o-84" value="Edit user" style="text;html=1;strokeColor=none;fillColor=none;align=center;verticalAlign=middle;whiteSpace=wrap;rounded=0;" vertex="1" parent="1">
          <mxGeometry x="430" y="445" width="60" height="30" as="geometry" />
        </mxCell>
        <mxCell id="DcuXK3b5VV86mCXhGM9o-85" value="Delete" style="text;html=1;strokeColor=none;fillColor=none;align=center;verticalAlign=middle;whiteSpace=wrap;rounded=0;" vertex="1" parent="1">
          <mxGeometry x="590" y="445" width="60" height="30" as="geometry" />
        </mxCell>
        <mxCell id="DcuXK3b5VV86mCXhGM9o-86" value="Alert delete success" style="text;html=1;strokeColor=none;fillColor=none;align=center;verticalAlign=middle;whiteSpace=wrap;rounded=0;" vertex="1" parent="1">
          <mxGeometry x="565" y="605" width="110" height="30" as="geometry" />
        </mxCell>
        <mxCell id="DcuXK3b5VV86mCXhGM9o-87" value="Manage device" style="text;html=1;strokeColor=none;fillColor=none;align=center;verticalAlign=middle;whiteSpace=wrap;rounded=0;" vertex="1" parent="1">
          <mxGeometry x="705" y="175" width="90" height="30" as="geometry" />
        </mxCell>
        <mxCell id="DcuXK3b5VV86mCXhGM9o-88" value="View device detail" style="text;html=1;strokeColor=none;fillColor=none;align=center;verticalAlign=middle;whiteSpace=wrap;rounded=0;" vertex="1" parent="1">
          <mxGeometry x="565" y="275" width="110" height="30" as="geometry" />
        </mxCell>
        <mxCell id="DcuXK3b5VV86mCXhGM9o-89" value="Delete device" style="text;html=1;strokeColor=none;fillColor=none;align=center;verticalAlign=middle;whiteSpace=wrap;rounded=0;" vertex="1" parent="1">
          <mxGeometry x="715" y="365" width="80" height="30" as="geometry" />
        </mxCell>
        <mxCell id="DcuXK3b5VV86mCXhGM9o-90" value="Alert delete successfully&amp;nbsp;" style="text;html=1;strokeColor=none;fillColor=none;align=center;verticalAlign=middle;whiteSpace=wrap;rounded=0;" vertex="1" parent="1">
          <mxGeometry x="720" y="805" width="80" height="30" as="geometry" />
        </mxCell>
      </root>
    </mxGraphModel>
  </diagram>
</mxfile>
